<?xml version="1.0" encoding="UTF-8" standalone="no"?>
<!-- Generator: Adobe Illustrator 19.0.0, SVG Export Plug-In . SVG Version: 6.00 Build 0)  -->

<svg
   version="1.1"
   id="Capa_1"
   x="0px"
   y="0px"
   viewBox="0 0 566.92913 188.97637"
   xml:space="preserve"
   sodipodi:docname="intro--gloves_game.svg"
   inkscape:version="1.2.1 (9c6d41e410, 2022-07-14)"
   width="150mm"
   height="50mm"
   xmlns:inkscape="http://www.inkscape.org/namespaces/inkscape"
   xmlns:sodipodi="http://sodipodi.sourceforge.net/DTD/sodipodi-0.dtd"
   xmlns="http://www.w3.org/2000/svg"
   xmlns:svg="http://www.w3.org/2000/svg"><defs
   id="defs37"><rect
     x="309.97525"
     y="-374.71692"
     width="349.21262"
     height="205.99622"
     id="rect422" /><rect
     x="694.50153"
     y="-115.75025"
     width="415.91617"
     height="388.45001"
     id="rect416" /></defs><sodipodi:namedview
   id="namedview35"
   pagecolor="#ffffff"
   bordercolor="#000000"
   borderopacity="0.25"
   inkscape:showpageshadow="2"
   inkscape:pageopacity="0.0"
   inkscape:pagecheckerboard="0"
   inkscape:deskcolor="#d1d1d1"
   showgrid="false"
   inkscape:zoom="1.0194362"
   inkscape:cx="231.99098"
   inkscape:cy="11.280745"
   inkscape:window-width="1368"
   inkscape:window-height="850"
   inkscape:window-x="-6"
   inkscape:window-y="-6"
   inkscape:window-maximized="1"
   inkscape:current-layer="Capa_1"
   inkscape:document-units="cm" />
















<g
   id="g736"
   transform="translate(0,-9.0816447)"><g
     id="g430"><g
       id="g397"
       transform="matrix(0.30949271,0,0,0.30949271,0.91634385,42.542682)" /></g><g
     id="g436"
     transform="translate(27.466161,1.9618686)"><g
       id="g403"
       transform="matrix(0.30949271,0,0,0.30949271,74.385614,85.652752)" /><g
       id="g747" /></g><g
     id="g409"
     transform="matrix(0.30949271,0,0,0.30949271,191.05679,27.54803)" /><text
     xml:space="preserve"
     id="text414"
     style="font-size:13.3333px;font-family:Arial;-inkscape-font-specification:Arial;white-space:pre;shape-inside:url(#rect416);fill:#000000;stroke-width:1.70079" /><text
     xml:space="preserve"
     id="text420"
     style="font-size:13.3333px;font-family:Arial;-inkscape-font-specification:Arial;white-space:pre;shape-inside:url(#rect422);fill:#000000;stroke-width:1.70079" /><g
     id="g933"
     transform="translate(-28.447095,-3.9237373)"><g
       id="g710"><path
         style="fill:#000000;stroke-width:1.70079"
         id="path391"
         sodipodi:type="arc"
         sodipodi:cx="-253.08105"
         sodipodi:cy="-260.92853"
         sodipodi:rx="88.284088"
         sodipodi:ry="88.284088"
         sodipodi:start="0"
         sodipodi:end="3.1415927"
         sodipodi:arc-type="slice"
         d="m -164.79697,-260.92853 a 88.284088,88.284088 0 0 1 -44.14204,76.45627 88.284088,88.284088 0 0 1 -88.28409,-1e-5 88.284088,88.284088 0 0 1 -44.14204,-76.45626 h 88.28409 z"
         transform="matrix(-0.30949272,0,0,-0.30949272,0.91634388,42.542683)" /><circle
         style="fill:#000000;stroke-width:1.70079"
         id="path393"
         cx="253.08105"
         cy="113.78838"
         r="52.970455"
         transform="matrix(0.30949272,0,0,0.30949272,0.91634388,42.542683)" /><text
         xml:space="preserve"
         style="font-style:normal;font-variant:normal;font-weight:normal;font-stretch:normal;font-size:26.6667px;font-family:'Meta Offc Pro';-inkscape-font-specification:'Meta Offc Pro';fill:#ffffff;stroke-width:1.19268"
         x="72.163086"
         y="118.34319"
         id="text354"><tspan
           sodipodi:role="line"
           id="tspan352"
           x="72.163086"
           y="118.34319"
           style="font-size:26.6667px;fill:#ffffff;stroke-width:1.19268">1</tspan></text></g><g
       id="g740"><path
         d="m 129.28579,52.830592 c -0.84176,-0.0438 -1.64892,0.19114 -2.32046,0.66885 v -10.09282 c 0,-2.04923 -1.52915,-3.73462 -3.4812,-3.83697 -0.85585,-0.0446 -1.67585,0.19901 -2.35413,0.69298 -0.11272,-0.82414 -0.50444,-1.59753 -1.11289,-2.17489 -0.73898,-0.70139 -1.70713,-1.05798 -2.72802,-1.00462 -1.74288,0.0914 -3.14875,1.44471 -3.42982,3.19236 -0.68169,-0.50267 -1.50812,-0.75121 -2.37184,-0.70594 -1.95205,0.10236 -3.48121,1.78774 -3.48121,3.83697 v 1.80473 c -0.67164,-0.4777 -1.47818,-0.71225 -2.32045,-0.66885 -1.95205,0.10236 -3.48121,1.78764 -3.48121,3.83698 v 13.34828 c 0,2.94703 0.50257,5.84859 1.49372,8.62406 l 2.56848,7.19147 c -0.45988,0.44311 -0.74686,1.06461 -0.74686,1.75221 v 3.31524 c 0,1.34246 1.09216,2.43462 2.43463,2.43462 h 18.23379 c 1.34247,0 2.43463,-1.09216 2.43463,-2.43462 v -3.31524 c 0,-0.72572 -0.31951,-1.37779 -0.82487,-1.82431 0.0201,-0.87015 0.26356,-1.72164 0.71215,-2.46912 l 3.31928,-5.5322 c 0.66584,-1.10988 0.93748,-2.31549 0.93748,-4.16104 v -8.64261 c -1e-4,-2.0484 -1.52915,-3.73327 -3.4812,-3.83552 z m -2.21696,29.78014 c 0,0.48558 -0.39503,0.88061 -0.88061,0.88061 h -18.2338 c -0.48557,0 -0.88061,-0.39503 -0.88061,-0.88061 v -3.31523 c 0,-0.48558 0.39504,-0.88061 0.88061,-0.88061 h 18.2338 c 0.48558,0 0.88061,0.39503 0.88061,0.88061 z m 4.14404,-17.3019 c 0,1.79924 -0.28625,2.64514 -0.71609,3.36144 l -3.31927,5.53219 c -0.48848,0.81421 -0.79286,1.72248 -0.89677,2.66069 -0.0308,-0.001 -0.0614,-0.002 -0.0925,-0.002 h -18.2338 c -0.0931,0 -0.18503,0.006 -0.27547,0.0161 l -2.5171,-7.04778 c -0.93116,-2.60712 -1.40327,-5.33287 -1.40327,-8.1014 v -13.34879 c 0,-1.20198 0.90091,-2.22701 2.00851,-2.28503 0.58929,-0.0307 1.15029,0.17488 1.57702,0.57986 0.42694,0.40529 0.66222,0.9524 0.66222,1.54086 v 8.70249 c 0,0.42912 0.34779,0.77701 0.77701,0.77701 0.42922,0 0.77701,-0.34789 0.77701,-0.77701 v -13.51103 c 0,-1.20198 0.90101,-2.22701 2.00851,-2.28503 0.58918,-0.0307 1.15038,0.17498 1.57701,0.57996 0.42705,0.40529 0.66222,0.9524 0.66222,1.54086 v 12.01773 c 0,0.42911 0.34779,0.77701 0.77701,0.77701 0.42922,0 0.77701,-0.3479 0.77701,-0.77701 v -14.33986 c 0,-1.20198 0.90102,-2.22701 2.00852,-2.28503 0.58866,-0.0312 1.15038,0.17498 1.57701,0.57996 0.42704,0.40529 0.66222,0.9524 0.66222,1.54086 v 15.33296 c 0,0.42912 0.34779,0.77701 0.77701,0.77701 0.42922,0 0.77701,-0.34789 0.77701,-0.77701 v -12.84653 c 0,-0.58846 0.23517,-1.13558 0.66222,-1.54086 0.42673,-0.40488 0.98752,-0.61073 1.57701,-0.57996 1.10708,0.058 2.0081,1.08315 2.0081,2.28502 v 19.31281 c 0,0.42911 0.34779,0.77701 0.77701,0.77701 0.42922,0 0.77701,-0.3479 0.77701,-0.77701 v -6.21607 c 0,-0.58846 0.23528,-1.13557 0.66222,-1.54086 0.42673,-0.40487 0.98659,-0.61063 1.57701,-0.57986 1.1074,0.058 2.00852,1.08253 2.00852,2.28368 v 8.64262 z"
         id="path2"
         style="stroke-width:0.103601" /><text
         xml:space="preserve"
         style="font-style:normal;font-variant:normal;font-weight:normal;font-stretch:normal;font-size:18.6667px;font-family:'Meta Offc Pro';-inkscape-font-specification:'Meta Offc Pro';fill:#ffffff;stroke-width:1.70079"
         x="112.31339"
         y="73.226875"
         id="text734"><tspan
           sodipodi:role="line"
           id="tspan732"
           x="112.31339"
           y="73.226875"
           style="font-size:18.6667px;fill:#000000">L</tspan></text></g></g><g
     id="g922"
     transform="translate(-44.142044,10.790277)"><g
       id="g718"><path
         style="fill:#000000;stroke-width:1.70079"
         id="path399"
         sodipodi:type="arc"
         sodipodi:cx="-253.08105"
         sodipodi:cy="-260.92853"
         sodipodi:rx="88.284088"
         sodipodi:ry="88.284088"
         sodipodi:start="0"
         sodipodi:end="3.1415927"
         sodipodi:arc-type="slice"
         d="m -164.79697,-260.92853 a 88.284088,88.284088 0 0 1 -44.14204,76.45627 88.284088,88.284088 0 0 1 -88.28409,-1e-5 88.284088,88.284088 0 0 1 -44.14204,-76.45626 h 88.28409 z"
         transform="matrix(-0.30949272,0,0,-0.30949272,101.85178,87.614623)" /><circle
         style="fill:#000000;stroke-width:1.70079"
         id="circle401"
         cx="253.08105"
         cy="113.78838"
         r="52.970455"
         transform="matrix(0.30949272,0,0,0.30949272,101.85178,87.614623)" /><text
         xml:space="preserve"
         style="font-style:normal;font-variant:normal;font-weight:normal;font-stretch:normal;font-size:26.6667px;font-family:'Meta Offc Pro';-inkscape-font-specification:'Meta Offc Pro';fill:#ffffff;stroke-width:1.70079"
         x="172.6185"
         y="163.57513"
         id="text600"><tspan
           sodipodi:role="line"
           id="tspan598"
           x="172.6185"
           y="163.57513"
           style="fill:#ffffff">2</tspan></text></g><g
       id="g767"><path
         d="m 204.75245,103.60062 c 0.84175,-0.0438 1.64891,0.19115 2.32045,0.66885 V 94.176647 c 0,-2.04923 1.52916,-3.73461 3.48121,-3.83697 0.85585,-0.0446 1.67585,0.19901 2.35412,0.69299 0.11273,-0.82415 0.50444,-1.59753 1.11289,-2.1749 0.73899,-0.70138 1.70714,-1.05798 2.72802,-1.00462 1.74288,0.0914 3.14875,1.44471 3.42982,3.19236 0.6817,-0.50267 1.50812,-0.75121 2.37185,-0.70594 1.95205,0.10236 3.4812,1.78774 3.4812,3.83697 v 1.80473 c 0.67165,-0.4777 1.47818,-0.71225 2.32046,-0.66884 1.95205,0.10236 3.4812,1.78764 3.4812,3.83697 v 13.348283 c 0,2.94703 -0.50257,5.84859 -1.49372,8.62406 l -2.56848,7.19148 c 0.45989,0.4431 0.74687,1.0646 0.74687,1.7522 v 3.31524 c 0,1.34246 -1.09217,2.43463 -2.43463,2.43463 h -18.2338 c -1.34246,0 -2.43462,-1.09217 -2.43462,-2.43463 v -3.31524 c 0,-0.72572 0.3195,-1.37779 0.82487,-1.82431 -0.0201,-0.87014 -0.26357,-1.72164 -0.71216,-2.46912 l -3.31927,-5.5322 c -0.66585,-1.10988 -0.93749,-2.31549 -0.93749,-4.16104 v -8.64261 c 1e-4,-2.0484 1.52915,-3.73326 3.48121,-3.83552 z m 2.21696,29.78014 c 0,0.48558 0.39503,0.88061 0.88061,0.88061 h 18.23379 c 0.48558,0 0.88061,-0.39503 0.88061,-0.88061 v -3.31523 c 0,-0.48558 -0.39503,-0.88061 -0.88061,-0.88061 h -18.23379 c -0.48558,0 -0.88061,0.39503 -0.88061,0.88061 z m -4.14405,-17.3019 c 0,1.79924 0.28625,2.64514 0.71609,3.36144 l 3.31928,5.5322 c 0.48848,0.8142 0.79286,1.72247 0.89677,2.66068 0.0308,-10e-4 0.0614,-0.002 0.0925,-0.002 h 18.23379 c 0.0931,0 0.18503,0.006 0.27548,0.0161 l 2.51709,-7.04778 c 0.93117,-2.60712 1.40328,-5.33287 1.40328,-8.1014 V 99.149817 c 0,-1.20198 -0.90092,-2.22701 -2.00852,-2.28503 -0.58928,-0.0307 -1.15028,0.17488 -1.57701,0.57986 -0.42695,0.40529 -0.66222,0.95241 -0.66222,1.54086 v 8.702503 c 0,0.42911 -0.34779,0.777 -0.77701,0.777 -0.42922,0 -0.77701,-0.34789 -0.77701,-0.777 V 94.176967 c 0,-1.20198 -0.90102,-2.22701 -2.00852,-2.28503 -0.58917,-0.0307 -1.15038,0.17498 -1.57701,0.57996 -0.42704,0.40529 -0.66222,0.95241 -0.66222,1.54086 v 12.017733 c 0,0.42911 -0.34779,0.77701 -0.77701,0.77701 -0.42922,0 -0.77701,-0.3479 -0.77701,-0.77701 V 91.690117 c 0,-1.20198 -0.90101,-2.22701 -2.00851,-2.28503 -0.58866,-0.0312 -1.15039,0.17498 -1.57702,0.57996 -0.42704,0.40529 -0.66221,0.95241 -0.66221,1.54086 v 15.332973 c 0,0.42911 -0.34779,0.777 -0.77701,0.777 -0.42922,0 -0.77701,-0.34789 -0.77701,-0.777 V 94.012337 c 0,-0.58846 -0.23518,-1.13557 -0.66222,-1.54086 -0.42673,-0.40488 -0.98753,-0.61073 -1.57701,-0.57996 -1.10709,0.058 -2.00811,1.08315 -2.00811,2.28502 v 19.312813 c 0,0.42911 -0.34778,0.77701 -0.777,0.77701 -0.42922,0 -0.77701,-0.3479 -0.77701,-0.77701 v -6.21607 c 0,-0.58845 -0.23528,-1.13557 -0.66222,-1.54086 -0.42673,-0.40487 -0.9866,-0.61063 -1.57702,-0.57986 -1.10739,0.058 -2.00851,1.08253 -2.00851,2.28368 v 8.64262 z"
         id="path296"
         style="stroke-width:0.103601" /><text
         xml:space="preserve"
         style="font-style:normal;font-variant:normal;font-weight:normal;font-stretch:normal;font-size:18.6667px;font-family:'Meta Offc Pro';-inkscape-font-specification:'Meta Offc Pro';fill:#000000;stroke-width:1.70079"
         x="211.63658"
         y="125.06914"
         id="text744"><tspan
           sodipodi:role="line"
           id="tspan742"
           x="211.63658"
           y="125.06914">R</tspan></text></g></g><g
     id="g911"
     transform="translate(-48.065782,24.523358)"><g
       id="g730"><path
         style="fill:#000000;stroke-width:1.70079"
         id="path405"
         sodipodi:type="arc"
         sodipodi:cx="-253.08105"
         sodipodi:cy="-260.92853"
         sodipodi:rx="88.284088"
         sodipodi:ry="88.284088"
         sodipodi:start="0"
         sodipodi:end="3.1415927"
         sodipodi:arc-type="slice"
         d="m -164.79697,-260.92853 a 88.284088,88.284088 0 0 1 -44.14204,76.45627 88.284088,88.284088 0 0 1 -88.28409,-1e-5 88.284088,88.284088 0 0 1 -44.14204,-76.45626 h 88.28409 z"
         transform="matrix(-0.30949272,0,0,-0.30949272,191.0568,27.548031)" /><circle
         style="fill:#000000;stroke-width:1.70079"
         id="circle407"
         cx="253.08105"
         cy="113.78838"
         r="52.970455"
         transform="matrix(0.30949272,0,0,0.30949272,191.0568,27.548031)" /><text
         xml:space="preserve"
         style="font-style:normal;font-variant:normal;font-weight:normal;font-stretch:normal;font-size:26.6667px;font-family:'Meta Offc Pro';-inkscape-font-specification:'Meta Offc Pro';fill:#ffffff;stroke-width:1.70079"
         x="262.0502"
         y="103.06854"
         id="text722"><tspan
           sodipodi:role="line"
           id="tspan720"
           x="262.0502"
           y="103.06854">3</tspan></text></g><g
       id="g774"><path
         d="m 295.07871,42.366867 c 0.84176,-0.0438 1.64891,0.19114 2.32046,0.66885 v -10.09283 c 0,-2.04923 1.52915,-3.73461 3.4812,-3.83697 0.85585,-0.0446 1.67585,0.19902 2.35413,0.69299 0.11272,-0.82415 0.50443,-1.59753 1.11288,-2.1749 0.73899,-0.70138 1.70714,-1.05797 2.72803,-1.00462 1.74288,0.0914 3.14875,1.44472 3.42981,3.19237 0.6817,-0.50268 1.50812,-0.75121 2.37185,-0.70594 1.95205,0.10236 3.4812,1.78774 3.4812,3.83697 v 1.80473 c 0.67165,-0.4777 1.47818,-0.71226 2.32046,-0.66885 1.95205,0.10236 3.48121,1.78764 3.48121,3.83698 v 13.34827 c 0,2.94704 -0.50257,5.8486 -1.49372,8.62407 l -2.56848,7.19147 c 0.45988,0.44311 0.74686,1.06461 0.74686,1.75221 v 3.31523 c 0,1.34247 -1.09216,2.43463 -2.43463,2.43463 h -18.2338 c -1.34246,0 -2.43462,-1.09216 -2.43462,-2.43463 v -3.31523 c 0,-0.72573 0.3195,-1.37779 0.82487,-1.82431 -0.0201,-0.87015 -0.26356,-1.72165 -0.71215,-2.46913 l -3.31928,-5.53219 c -0.66584,-1.10988 -0.93749,-2.31549 -0.93749,-4.16104 v -8.64261 c 1.1e-4,-2.04841 1.52915,-3.73327 3.48121,-3.83552 z m 2.21696,29.78014 c 0,0.48558 0.39503,0.88061 0.88061,0.88061 h 18.2338 c 0.48557,0 0.8806,-0.39503 0.8806,-0.88061 v -3.31524 c 0,-0.48558 -0.39503,-0.88061 -0.8806,-0.88061 h -18.2338 c -0.48558,0 -0.88061,0.39503 -0.88061,0.88061 z m -4.14405,-17.30191 c 0,1.79924 0.28625,2.64515 0.71609,3.36144 l 3.31928,5.5322 c 0.48848,0.8142 0.79286,1.72248 0.89677,2.66069 0.0308,-0.001 0.0614,-0.002 0.0925,-0.002 h 18.2338 c 0.0931,0 0.18503,0.006 0.27547,0.0161 l 2.51709,-7.04777 c 0.93117,-2.60712 1.40328,-5.33287 1.40328,-8.1014 v -13.34828 c 0,-1.20198 -0.90092,-2.22701 -2.00851,-2.28503 -0.58929,-0.0307 -1.15029,0.17488 -1.57702,0.57986 -0.42694,0.40528 -0.66222,0.9524 -0.66222,1.54086 v 8.70249 c 0,0.42912 -0.34779,0.77701 -0.77701,0.77701 -0.42922,0 -0.77701,-0.34789 -0.77701,-0.77701 v -13.51104 c 0,-1.20198 -0.90101,-2.22701 -2.00851,-2.28502 -0.58918,-0.0307 -1.15039,0.17498 -1.57702,0.57996 -0.42704,0.40528 -0.66222,0.9524 -0.66222,1.54086 v 12.01773 c 0,0.42911 -0.34778,0.777 -0.777,0.777 -0.42922,0 -0.77701,-0.34789 -0.77701,-0.777 v -14.33987 c 0,-1.20198 -0.90102,-2.22701 -2.00852,-2.28502 -0.58866,-0.0312 -1.15038,0.17498 -1.57701,0.57996 -0.42705,0.40528 -0.66222,0.9524 -0.66222,1.54086 v 15.33296 c 0,0.42912 -0.34779,0.77701 -0.77701,0.77701 -0.42922,0 -0.77701,-0.34789 -0.77701,-0.77701 v -12.84654 c 0,-0.58845 -0.23517,-1.13557 -0.66222,-1.54086 -0.42673,-0.40487 -0.98752,-0.61073 -1.57701,-0.57996 -1.10709,0.058 -2.00811,1.08315 -2.00811,2.28503 v 19.3128 c 0,0.42912 -0.34778,0.77701 -0.777,0.77701 -0.42922,0 -0.77701,-0.34789 -0.77701,-0.77701 v -6.21606 c 0,-0.58846 -0.23528,-1.13558 -0.66222,-1.54086 -0.42673,-0.40488 -0.98659,-0.61063 -1.57702,-0.57986 -1.10739,0.058 -2.00851,1.08253 -2.00851,2.28368 v 8.64261 z"
         id="path298"
         style="stroke-width:0.103601" /><text
         xml:space="preserve"
         style="font-style:normal;font-variant:normal;font-weight:normal;font-stretch:normal;font-size:18.6667px;font-family:'Meta Offc Pro';-inkscape-font-specification:'Meta Offc Pro';fill:#000000;stroke-width:1.70079"
         x="302.15466"
         y="63.856709"
         id="text757"><tspan
           sodipodi:role="line"
           id="tspan755"
           x="302.15466"
           y="63.856709">R</tspan></text></g></g><g
     id="g575"
     transform="translate(0,12.010895)"><g
       id="g784"
       transform="matrix(0.54527563,0,0,0.54527563,341.48462,-12.622869)"><path
         style="fill:#000000;stroke-width:1.70079"
         id="path776"
         sodipodi:type="arc"
         sodipodi:cx="-253.08105"
         sodipodi:cy="-260.92853"
         sodipodi:rx="88.284088"
         sodipodi:ry="88.284088"
         sodipodi:start="0"
         sodipodi:end="3.1415927"
         sodipodi:arc-type="slice"
         d="m -164.79697,-260.92853 a 88.284088,88.284088 0 0 1 -44.14204,76.45627 88.284088,88.284088 0 0 1 -88.28409,-1e-5 88.284088,88.284088 0 0 1 -44.14204,-76.45626 h 88.28409 z"
         transform="matrix(-0.30949272,0,0,-0.30949272,0.91634388,42.542683)" /><circle
         style="fill:#000000;stroke-width:1.70079"
         id="circle778"
         cx="253.08105"
         cy="113.78838"
         r="52.970455"
         transform="matrix(0.30949272,0,0,0.30949272,0.91634388,42.542683)" /><text
         xml:space="preserve"
         style="font-style:normal;font-variant:normal;font-weight:normal;font-stretch:normal;font-size:26.6667px;font-family:'Meta Offc Pro';-inkscape-font-specification:'Meta Offc Pro';fill:#ffffff;stroke-width:1.19268"
         x="72.163086"
         y="118.34319"
         id="text782"><tspan
           sodipodi:role="line"
           id="tspan780"
           x="72.163086"
           y="118.34319"
           style="font-size:26.6667px;fill:#ffffff;stroke-width:1.19268">1</tspan></text></g><g
       id="g794"
       transform="matrix(0.54527563,0,0,0.54527563,324.74442,-37.199499)"><path
         style="fill:#000000;stroke-width:1.70079"
         id="path786"
         sodipodi:type="arc"
         sodipodi:cx="-253.08105"
         sodipodi:cy="-260.92853"
         sodipodi:rx="88.284088"
         sodipodi:ry="88.284088"
         sodipodi:start="0"
         sodipodi:end="3.1415927"
         sodipodi:arc-type="slice"
         d="m -164.79697,-260.92853 a 88.284088,88.284088 0 0 1 -44.14204,76.45627 88.284088,88.284088 0 0 1 -88.28409,-1e-5 88.284088,88.284088 0 0 1 -44.14204,-76.45626 h 88.28409 z"
         transform="matrix(-0.30949272,0,0,-0.30949272,101.85178,87.614623)" /><circle
         style="fill:#000000;stroke-width:1.70079"
         id="circle788"
         cx="253.08105"
         cy="113.78838"
         r="52.970455"
         transform="matrix(0.30949272,0,0,0.30949272,101.85178,87.614623)" /><text
         xml:space="preserve"
         style="font-style:normal;font-variant:normal;font-weight:normal;font-stretch:normal;font-size:26.6667px;font-family:'Meta Offc Pro';-inkscape-font-specification:'Meta Offc Pro';fill:#ffffff;stroke-width:1.70079"
         x="172.6185"
         y="163.57513"
         id="text792"><tspan
           sodipodi:role="line"
           id="tspan790"
           x="172.6185"
           y="163.57513"
           style="fill:#ffffff">2</tspan></text></g><g
       id="g804"
       transform="matrix(0.54527563,0,0,0.54527563,341.48462,43.647562)"><path
         style="fill:#000000;stroke-width:1.70079"
         id="path796"
         sodipodi:type="arc"
         sodipodi:cx="-253.08105"
         sodipodi:cy="-260.92853"
         sodipodi:rx="88.284088"
         sodipodi:ry="88.284088"
         sodipodi:start="0"
         sodipodi:end="3.1415927"
         sodipodi:arc-type="slice"
         d="m -164.79697,-260.92853 a 88.284088,88.284088 0 0 1 -44.14204,76.45627 88.284088,88.284088 0 0 1 -88.28409,-1e-5 88.284088,88.284088 0 0 1 -44.14204,-76.45626 h 88.28409 z"
         transform="matrix(-0.30949272,0,0,-0.30949272,0.91634388,42.542683)" /><circle
         style="fill:#000000;stroke-width:1.70079"
         id="circle798"
         cx="253.08105"
         cy="113.78838"
         r="52.970455"
         transform="matrix(0.30949272,0,0,0.30949272,0.91634388,42.542683)" /><text
         xml:space="preserve"
         style="font-style:normal;font-variant:normal;font-weight:normal;font-stretch:normal;font-size:26.6667px;font-family:'Meta Offc Pro';-inkscape-font-specification:'Meta Offc Pro';fill:#ffffff;stroke-width:1.19268"
         x="72.163086"
         y="118.34319"
         id="text802"><tspan
           sodipodi:role="line"
           id="tspan800"
           x="72.163086"
           y="118.34319"
           style="font-size:26.6667px;fill:#ffffff;stroke-width:1.19268">1</tspan></text></g><g
       id="g814"
       transform="matrix(0.54527563,0,0,0.54527563,276.1031,51.823781)"><path
         style="fill:#000000;stroke-width:1.70079"
         id="path806"
         sodipodi:type="arc"
         sodipodi:cx="-253.08105"
         sodipodi:cy="-260.92853"
         sodipodi:rx="88.284088"
         sodipodi:ry="88.284088"
         sodipodi:start="0"
         sodipodi:end="3.1415927"
         sodipodi:arc-type="slice"
         d="m -164.79697,-260.92853 a 88.284088,88.284088 0 0 1 -44.14204,76.45627 88.284088,88.284088 0 0 1 -88.28409,-1e-5 88.284088,88.284088 0 0 1 -44.14204,-76.45626 h 88.28409 z"
         transform="matrix(-0.30949272,0,0,-0.30949272,191.0568,27.548031)" /><circle
         style="fill:#000000;stroke-width:1.70079"
         id="circle808"
         cx="253.08105"
         cy="113.78838"
         r="52.970455"
         transform="matrix(0.30949272,0,0,0.30949272,191.0568,27.548031)" /><text
         xml:space="preserve"
         style="font-style:normal;font-variant:normal;font-weight:normal;font-stretch:normal;font-size:26.6667px;font-family:'Meta Offc Pro';-inkscape-font-specification:'Meta Offc Pro';fill:#ffffff;stroke-width:1.70079"
         x="262.0502"
         y="103.06854"
         id="text812"><tspan
           sodipodi:role="line"
           id="tspan810"
           x="262.0502"
           y="103.06854">3</tspan></text></g><g
       id="g824"
       transform="matrix(0.54527563,0,0,0.54527563,322.3359,99.917994)"><path
         style="fill:#000000;stroke-width:1.70079"
         id="path816"
         sodipodi:type="arc"
         sodipodi:cx="-253.08105"
         sodipodi:cy="-260.92853"
         sodipodi:rx="88.284088"
         sodipodi:ry="88.284088"
         sodipodi:start="0"
         sodipodi:end="3.1415927"
         sodipodi:arc-type="slice"
         d="m -164.79697,-260.92853 a 88.284088,88.284088 0 0 1 -44.14204,76.45627 88.284088,88.284088 0 0 1 -88.28409,-1e-5 88.284088,88.284088 0 0 1 -44.14204,-76.45626 h 88.28409 z"
         transform="matrix(-0.30949272,0,0,-0.30949272,0.91634388,42.542683)" /><circle
         style="fill:#000000;stroke-width:1.70079"
         id="circle818"
         cx="253.08105"
         cy="113.78838"
         r="52.970455"
         transform="matrix(0.30949272,0,0,0.30949272,0.91634388,42.542683)" /><text
         xml:space="preserve"
         style="font-style:normal;font-variant:normal;font-weight:normal;font-stretch:normal;font-size:26.6667px;font-family:'Meta Offc Pro';-inkscape-font-specification:'Meta Offc Pro';fill:#ffffff;stroke-width:1.19268"
         x="72.163086"
         y="118.34319"
         id="text822"><tspan
           sodipodi:role="line"
           id="tspan820"
           x="72.163086"
           y="118.34319"
           style="font-size:26.6667px;fill:#ffffff;stroke-width:1.19268">1</tspan></text></g><g
       id="g834"
       transform="matrix(0.54527563,0,0,0.54527563,305.5957,75.341364)"><path
         style="fill:#000000;stroke-width:1.70079"
         id="path826"
         sodipodi:type="arc"
         sodipodi:cx="-253.08105"
         sodipodi:cy="-260.92853"
         sodipodi:rx="88.284088"
         sodipodi:ry="88.284088"
         sodipodi:start="0"
         sodipodi:end="3.1415927"
         sodipodi:arc-type="slice"
         d="m -164.79697,-260.92853 a 88.284088,88.284088 0 0 1 -44.14204,76.45627 88.284088,88.284088 0 0 1 -88.28409,-1e-5 88.284088,88.284088 0 0 1 -44.14204,-76.45626 h 88.28409 z"
         transform="matrix(-0.30949272,0,0,-0.30949272,101.85178,87.614623)" /><circle
         style="fill:#000000;stroke-width:1.70079"
         id="circle828"
         cx="253.08105"
         cy="113.78838"
         r="52.970455"
         transform="matrix(0.30949272,0,0,0.30949272,101.85178,87.614623)" /><text
         xml:space="preserve"
         style="font-style:normal;font-variant:normal;font-weight:normal;font-stretch:normal;font-size:26.6667px;font-family:'Meta Offc Pro';-inkscape-font-specification:'Meta Offc Pro';fill:#ffffff;stroke-width:1.70079"
         x="172.6185"
         y="163.57513"
         id="text832"><tspan
           sodipodi:role="line"
           id="tspan830"
           x="172.6185"
           y="163.57513"
           style="fill:#ffffff">2</tspan></text></g><g
       id="g844"
       transform="matrix(0.54527563,0,0,0.54527563,295.25182,108.09422)"><path
         style="fill:#000000;stroke-width:1.70079"
         id="path836"
         sodipodi:type="arc"
         sodipodi:cx="-253.08105"
         sodipodi:cy="-260.92853"
         sodipodi:rx="88.284088"
         sodipodi:ry="88.284088"
         sodipodi:start="0"
         sodipodi:end="3.1415927"
         sodipodi:arc-type="slice"
         d="m -164.79697,-260.92853 a 88.284088,88.284088 0 0 1 -44.14204,76.45627 88.284088,88.284088 0 0 1 -88.28409,-1e-5 88.284088,88.284088 0 0 1 -44.14204,-76.45626 h 88.28409 z"
         transform="matrix(-0.30949272,0,0,-0.30949272,191.0568,27.548031)" /><circle
         style="fill:#000000;stroke-width:1.70079"
         id="circle838"
         cx="253.08105"
         cy="113.78838"
         r="52.970455"
         transform="matrix(0.30949272,0,0,0.30949272,191.0568,27.548031)" /><text
         xml:space="preserve"
         style="font-style:normal;font-variant:normal;font-weight:normal;font-stretch:normal;font-size:26.6667px;font-family:'Meta Offc Pro';-inkscape-font-specification:'Meta Offc Pro';fill:#ffffff;stroke-width:1.70079"
         x="262.0502"
         y="103.06854"
         id="text842"><tspan
           sodipodi:role="line"
           id="tspan840"
           x="262.0502"
           y="103.06854">3</tspan></text></g><g
       id="g987"
       transform="translate(-141.25454,-13.739693)"><g
         id="g852"
         transform="matrix(0.54527563,0,0,0.54527563,549.3358,18.167704)"><path
           d="m 129.28579,52.830592 c -0.84176,-0.0438 -1.64892,0.19114 -2.32046,0.66885 v -10.09282 c 0,-2.04923 -1.52915,-3.73462 -3.4812,-3.83697 -0.85585,-0.0446 -1.67585,0.19901 -2.35413,0.69298 -0.11272,-0.82414 -0.50444,-1.59753 -1.11289,-2.17489 -0.73898,-0.70139 -1.70713,-1.05798 -2.72802,-1.00462 -1.74288,0.0914 -3.14875,1.44471 -3.42982,3.19236 -0.68169,-0.50267 -1.50812,-0.75121 -2.37184,-0.70594 -1.95205,0.10236 -3.48121,1.78774 -3.48121,3.83697 v 1.80473 c -0.67164,-0.4777 -1.47818,-0.71225 -2.32045,-0.66885 -1.95205,0.10236 -3.48121,1.78764 -3.48121,3.83698 v 13.34828 c 0,2.94703 0.50257,5.84859 1.49372,8.62406 l 2.56848,7.19147 c -0.45988,0.44311 -0.74686,1.06461 -0.74686,1.75221 v 3.31524 c 0,1.34246 1.09216,2.43462 2.43463,2.43462 h 18.23379 c 1.34247,0 2.43463,-1.09216 2.43463,-2.43462 v -3.31524 c 0,-0.72572 -0.31951,-1.37779 -0.82487,-1.82431 0.0201,-0.87015 0.26356,-1.72164 0.71215,-2.46912 l 3.31928,-5.5322 c 0.66584,-1.10988 0.93748,-2.31549 0.93748,-4.16104 v -8.64261 c -1e-4,-2.0484 -1.52915,-3.73327 -3.4812,-3.83552 z m -2.21696,29.78014 c 0,0.48558 -0.39503,0.88061 -0.88061,0.88061 h -18.2338 c -0.48557,0 -0.88061,-0.39503 -0.88061,-0.88061 v -3.31523 c 0,-0.48558 0.39504,-0.88061 0.88061,-0.88061 h 18.2338 c 0.48558,0 0.88061,0.39503 0.88061,0.88061 z m 4.14404,-17.3019 c 0,1.79924 -0.28625,2.64514 -0.71609,3.36144 l -3.31927,5.53219 c -0.48848,0.81421 -0.79286,1.72248 -0.89677,2.66069 -0.0308,-0.001 -0.0614,-0.002 -0.0925,-0.002 h -18.2338 c -0.0931,0 -0.18503,0.006 -0.27547,0.0161 l -2.5171,-7.04778 c -0.93116,-2.60712 -1.40327,-5.33287 -1.40327,-8.1014 v -13.34879 c 0,-1.20198 0.90091,-2.22701 2.00851,-2.28503 0.58929,-0.0307 1.15029,0.17488 1.57702,0.57986 0.42694,0.40529 0.66222,0.9524 0.66222,1.54086 v 8.70249 c 0,0.42912 0.34779,0.77701 0.77701,0.77701 0.42922,0 0.77701,-0.34789 0.77701,-0.77701 v -13.51103 c 0,-1.20198 0.90101,-2.22701 2.00851,-2.28503 0.58918,-0.0307 1.15038,0.17498 1.57701,0.57996 0.42705,0.40529 0.66222,0.9524 0.66222,1.54086 v 12.01773 c 0,0.42911 0.34779,0.77701 0.77701,0.77701 0.42922,0 0.77701,-0.3479 0.77701,-0.77701 v -14.33986 c 0,-1.20198 0.90102,-2.22701 2.00852,-2.28503 0.58866,-0.0312 1.15038,0.17498 1.57701,0.57996 0.42704,0.40529 0.66222,0.9524 0.66222,1.54086 v 15.33296 c 0,0.42912 0.34779,0.77701 0.77701,0.77701 0.42922,0 0.77701,-0.34789 0.77701,-0.77701 v -12.84653 c 0,-0.58846 0.23517,-1.13558 0.66222,-1.54086 0.42673,-0.40488 0.98752,-0.61073 1.57701,-0.57996 1.10708,0.058 2.0081,1.08315 2.0081,2.28502 v 19.31281 c 0,0.42911 0.34779,0.77701 0.77701,0.77701 0.42922,0 0.77701,-0.3479 0.77701,-0.77701 v -6.21607 c 0,-0.58846 0.23528,-1.13557 0.66222,-1.54086 0.42673,-0.40487 0.98659,-0.61063 1.57701,-0.57986 1.1074,0.058 2.00852,1.08253 2.00852,2.28368 v 8.64262 z"
           id="path846"
           style="stroke-width:0.103601" /><text
           xml:space="preserve"
           style="font-style:normal;font-variant:normal;font-weight:normal;font-stretch:normal;font-size:18.6667px;font-family:'Meta Offc Pro';-inkscape-font-specification:'Meta Offc Pro';fill:#ffffff;stroke-width:1.70079"
           x="112.31339"
           y="73.226875"
           id="text850"><tspan
             sodipodi:role="line"
             id="tspan848"
             x="112.31339"
             y="73.226875"
             style="font-size:18.6667px;fill:#000000">L</tspan></text></g><g
         id="g860"
         transform="matrix(0.54527563,0,0,0.54527563,470.2294,23.87332)"><path
           d="m 295.07871,42.366867 c 0.84176,-0.0438 1.64891,0.19114 2.32046,0.66885 v -10.09283 c 0,-2.04923 1.52915,-3.73461 3.4812,-3.83697 0.85585,-0.0446 1.67585,0.19902 2.35413,0.69299 0.11272,-0.82415 0.50443,-1.59753 1.11288,-2.1749 0.73899,-0.70138 1.70714,-1.05797 2.72803,-1.00462 1.74288,0.0914 3.14875,1.44472 3.42981,3.19237 0.6817,-0.50268 1.50812,-0.75121 2.37185,-0.70594 1.95205,0.10236 3.4812,1.78774 3.4812,3.83697 v 1.80473 c 0.67165,-0.4777 1.47818,-0.71226 2.32046,-0.66885 1.95205,0.10236 3.48121,1.78764 3.48121,3.83698 v 13.34827 c 0,2.94704 -0.50257,5.8486 -1.49372,8.62407 l -2.56848,7.19147 c 0.45988,0.44311 0.74686,1.06461 0.74686,1.75221 v 3.31523 c 0,1.34247 -1.09216,2.43463 -2.43463,2.43463 h -18.2338 c -1.34246,0 -2.43462,-1.09216 -2.43462,-2.43463 v -3.31523 c 0,-0.72573 0.3195,-1.37779 0.82487,-1.82431 -0.0201,-0.87015 -0.26356,-1.72165 -0.71215,-2.46913 l -3.31928,-5.53219 c -0.66584,-1.10988 -0.93749,-2.31549 -0.93749,-4.16104 v -8.64261 c 1.1e-4,-2.04841 1.52915,-3.73327 3.48121,-3.83552 z m 2.21696,29.78014 c 0,0.48558 0.39503,0.88061 0.88061,0.88061 h 18.2338 c 0.48557,0 0.8806,-0.39503 0.8806,-0.88061 v -3.31524 c 0,-0.48558 -0.39503,-0.88061 -0.8806,-0.88061 h -18.2338 c -0.48558,0 -0.88061,0.39503 -0.88061,0.88061 z m -4.14405,-17.30191 c 0,1.79924 0.28625,2.64515 0.71609,3.36144 l 3.31928,5.5322 c 0.48848,0.8142 0.79286,1.72248 0.89677,2.66069 0.0308,-0.001 0.0614,-0.002 0.0925,-0.002 h 18.2338 c 0.0931,0 0.18503,0.006 0.27547,0.0161 l 2.51709,-7.04777 c 0.93117,-2.60712 1.40328,-5.33287 1.40328,-8.1014 v -13.34828 c 0,-1.20198 -0.90092,-2.22701 -2.00851,-2.28503 -0.58929,-0.0307 -1.15029,0.17488 -1.57702,0.57986 -0.42694,0.40528 -0.66222,0.9524 -0.66222,1.54086 v 8.70249 c 0,0.42912 -0.34779,0.77701 -0.77701,0.77701 -0.42922,0 -0.77701,-0.34789 -0.77701,-0.77701 v -13.51104 c 0,-1.20198 -0.90101,-2.22701 -2.00851,-2.28502 -0.58918,-0.0307 -1.15039,0.17498 -1.57702,0.57996 -0.42704,0.40528 -0.66222,0.9524 -0.66222,1.54086 v 12.01773 c 0,0.42911 -0.34778,0.777 -0.777,0.777 -0.42922,0 -0.77701,-0.34789 -0.77701,-0.777 v -14.33987 c 0,-1.20198 -0.90102,-2.22701 -2.00852,-2.28502 -0.58866,-0.0312 -1.15038,0.17498 -1.57701,0.57996 -0.42705,0.40528 -0.66222,0.9524 -0.66222,1.54086 v 15.33296 c 0,0.42912 -0.34779,0.77701 -0.77701,0.77701 -0.42922,0 -0.77701,-0.34789 -0.77701,-0.77701 v -12.84654 c 0,-0.58845 -0.23517,-1.13557 -0.66222,-1.54086 -0.42673,-0.40487 -0.98752,-0.61073 -1.57701,-0.57996 -1.10709,0.058 -2.00811,1.08315 -2.00811,2.28503 v 19.3128 c 0,0.42912 -0.34778,0.77701 -0.777,0.77701 -0.42922,0 -0.77701,-0.34789 -0.77701,-0.77701 v -6.21606 c 0,-0.58846 -0.23528,-1.13558 -0.66222,-1.54086 -0.42673,-0.40488 -0.98659,-0.61063 -1.57702,-0.57986 -1.10739,0.058 -2.00851,1.08253 -2.00851,2.28368 v 8.64261 z"
           id="path854"
           style="stroke-width:0.103601" /><text
           xml:space="preserve"
           style="font-style:normal;font-variant:normal;font-weight:normal;font-stretch:normal;font-size:18.6667px;font-family:'Meta Offc Pro';-inkscape-font-specification:'Meta Offc Pro';fill:#000000;stroke-width:1.70079"
           x="302.15466"
           y="63.856709"
           id="text858"><tspan
             sodipodi:role="line"
             id="tspan856"
             x="302.15466"
             y="63.856709">R</tspan></text></g></g><g
       id="g997"
       transform="translate(-141.25454,-6.1246968)"><g
         id="g868"
         transform="matrix(0.54527563,0,0,0.54527563,549.3358,66.823138)"><path
           d="m 129.28579,52.830592 c -0.84176,-0.0438 -1.64892,0.19114 -2.32046,0.66885 v -10.09282 c 0,-2.04923 -1.52915,-3.73462 -3.4812,-3.83697 -0.85585,-0.0446 -1.67585,0.19901 -2.35413,0.69298 -0.11272,-0.82414 -0.50444,-1.59753 -1.11289,-2.17489 -0.73898,-0.70139 -1.70713,-1.05798 -2.72802,-1.00462 -1.74288,0.0914 -3.14875,1.44471 -3.42982,3.19236 -0.68169,-0.50267 -1.50812,-0.75121 -2.37184,-0.70594 -1.95205,0.10236 -3.48121,1.78774 -3.48121,3.83697 v 1.80473 c -0.67164,-0.4777 -1.47818,-0.71225 -2.32045,-0.66885 -1.95205,0.10236 -3.48121,1.78764 -3.48121,3.83698 v 13.34828 c 0,2.94703 0.50257,5.84859 1.49372,8.62406 l 2.56848,7.19147 c -0.45988,0.44311 -0.74686,1.06461 -0.74686,1.75221 v 3.31524 c 0,1.34246 1.09216,2.43462 2.43463,2.43462 h 18.23379 c 1.34247,0 2.43463,-1.09216 2.43463,-2.43462 v -3.31524 c 0,-0.72572 -0.31951,-1.37779 -0.82487,-1.82431 0.0201,-0.87015 0.26356,-1.72164 0.71215,-2.46912 l 3.31928,-5.5322 c 0.66584,-1.10988 0.93748,-2.31549 0.93748,-4.16104 v -8.64261 c -1e-4,-2.0484 -1.52915,-3.73327 -3.4812,-3.83552 z m -2.21696,29.78014 c 0,0.48558 -0.39503,0.88061 -0.88061,0.88061 h -18.2338 c -0.48557,0 -0.88061,-0.39503 -0.88061,-0.88061 v -3.31523 c 0,-0.48558 0.39504,-0.88061 0.88061,-0.88061 h 18.2338 c 0.48558,0 0.88061,0.39503 0.88061,0.88061 z m 4.14404,-17.3019 c 0,1.79924 -0.28625,2.64514 -0.71609,3.36144 l -3.31927,5.53219 c -0.48848,0.81421 -0.79286,1.72248 -0.89677,2.66069 -0.0308,-0.001 -0.0614,-0.002 -0.0925,-0.002 h -18.2338 c -0.0931,0 -0.18503,0.006 -0.27547,0.0161 l -2.5171,-7.04778 c -0.93116,-2.60712 -1.40327,-5.33287 -1.40327,-8.1014 v -13.34879 c 0,-1.20198 0.90091,-2.22701 2.00851,-2.28503 0.58929,-0.0307 1.15029,0.17488 1.57702,0.57986 0.42694,0.40529 0.66222,0.9524 0.66222,1.54086 v 8.70249 c 0,0.42912 0.34779,0.77701 0.77701,0.77701 0.42922,0 0.77701,-0.34789 0.77701,-0.77701 v -13.51103 c 0,-1.20198 0.90101,-2.22701 2.00851,-2.28503 0.58918,-0.0307 1.15038,0.17498 1.57701,0.57996 0.42705,0.40529 0.66222,0.9524 0.66222,1.54086 v 12.01773 c 0,0.42911 0.34779,0.77701 0.77701,0.77701 0.42922,0 0.77701,-0.3479 0.77701,-0.77701 v -14.33986 c 0,-1.20198 0.90102,-2.22701 2.00852,-2.28503 0.58866,-0.0312 1.15038,0.17498 1.57701,0.57996 0.42704,0.40529 0.66222,0.9524 0.66222,1.54086 v 15.33296 c 0,0.42912 0.34779,0.77701 0.77701,0.77701 0.42922,0 0.77701,-0.34789 0.77701,-0.77701 v -12.84653 c 0,-0.58846 0.23517,-1.13558 0.66222,-1.54086 0.42673,-0.40488 0.98752,-0.61073 1.57701,-0.57996 1.10708,0.058 2.0081,1.08315 2.0081,2.28502 v 19.31281 c 0,0.42911 0.34779,0.77701 0.77701,0.77701 0.42922,0 0.77701,-0.3479 0.77701,-0.77701 v -6.21607 c 0,-0.58846 0.23528,-1.13557 0.66222,-1.54086 0.42673,-0.40487 0.98659,-0.61063 1.57701,-0.57986 1.1074,0.058 2.00852,1.08253 2.00852,2.28368 v 8.64262 z"
           id="path862"
           style="stroke-width:0.103601" /><text
           xml:space="preserve"
           style="font-style:normal;font-variant:normal;font-weight:normal;font-stretch:normal;font-size:18.6667px;font-family:'Meta Offc Pro';-inkscape-font-specification:'Meta Offc Pro';fill:#ffffff;stroke-width:1.70079"
           x="112.31339"
           y="73.226875"
           id="text866"><tspan
             sodipodi:role="line"
             id="tspan864"
             x="112.31339"
             y="73.226875"
             style="font-size:18.6667px;fill:#000000">L</tspan></text></g><g
         id="g876"
         transform="matrix(0.54527563,0,0,0.54527563,470.2294,72.528755)"><path
           d="m 295.07871,42.366867 c 0.84176,-0.0438 1.64891,0.19114 2.32046,0.66885 v -10.09283 c 0,-2.04923 1.52915,-3.73461 3.4812,-3.83697 0.85585,-0.0446 1.67585,0.19902 2.35413,0.69299 0.11272,-0.82415 0.50443,-1.59753 1.11288,-2.1749 0.73899,-0.70138 1.70714,-1.05797 2.72803,-1.00462 1.74288,0.0914 3.14875,1.44472 3.42981,3.19237 0.6817,-0.50268 1.50812,-0.75121 2.37185,-0.70594 1.95205,0.10236 3.4812,1.78774 3.4812,3.83697 v 1.80473 c 0.67165,-0.4777 1.47818,-0.71226 2.32046,-0.66885 1.95205,0.10236 3.48121,1.78764 3.48121,3.83698 v 13.34827 c 0,2.94704 -0.50257,5.8486 -1.49372,8.62407 l -2.56848,7.19147 c 0.45988,0.44311 0.74686,1.06461 0.74686,1.75221 v 3.31523 c 0,1.34247 -1.09216,2.43463 -2.43463,2.43463 h -18.2338 c -1.34246,0 -2.43462,-1.09216 -2.43462,-2.43463 v -3.31523 c 0,-0.72573 0.3195,-1.37779 0.82487,-1.82431 -0.0201,-0.87015 -0.26356,-1.72165 -0.71215,-2.46913 l -3.31928,-5.53219 c -0.66584,-1.10988 -0.93749,-2.31549 -0.93749,-4.16104 v -8.64261 c 1.1e-4,-2.04841 1.52915,-3.73327 3.48121,-3.83552 z m 2.21696,29.78014 c 0,0.48558 0.39503,0.88061 0.88061,0.88061 h 18.2338 c 0.48557,0 0.8806,-0.39503 0.8806,-0.88061 v -3.31524 c 0,-0.48558 -0.39503,-0.88061 -0.8806,-0.88061 h -18.2338 c -0.48558,0 -0.88061,0.39503 -0.88061,0.88061 z m -4.14405,-17.30191 c 0,1.79924 0.28625,2.64515 0.71609,3.36144 l 3.31928,5.5322 c 0.48848,0.8142 0.79286,1.72248 0.89677,2.66069 0.0308,-0.001 0.0614,-0.002 0.0925,-0.002 h 18.2338 c 0.0931,0 0.18503,0.006 0.27547,0.0161 l 2.51709,-7.04777 c 0.93117,-2.60712 1.40328,-5.33287 1.40328,-8.1014 v -13.34828 c 0,-1.20198 -0.90092,-2.22701 -2.00851,-2.28503 -0.58929,-0.0307 -1.15029,0.17488 -1.57702,0.57986 -0.42694,0.40528 -0.66222,0.9524 -0.66222,1.54086 v 8.70249 c 0,0.42912 -0.34779,0.77701 -0.77701,0.77701 -0.42922,0 -0.77701,-0.34789 -0.77701,-0.77701 v -13.51104 c 0,-1.20198 -0.90101,-2.22701 -2.00851,-2.28502 -0.58918,-0.0307 -1.15039,0.17498 -1.57702,0.57996 -0.42704,0.40528 -0.66222,0.9524 -0.66222,1.54086 v 12.01773 c 0,0.42911 -0.34778,0.777 -0.777,0.777 -0.42922,0 -0.77701,-0.34789 -0.77701,-0.777 v -14.33987 c 0,-1.20198 -0.90102,-2.22701 -2.00852,-2.28502 -0.58866,-0.0312 -1.15038,0.17498 -1.57701,0.57996 -0.42705,0.40528 -0.66222,0.9524 -0.66222,1.54086 v 15.33296 c 0,0.42912 -0.34779,0.77701 -0.77701,0.77701 -0.42922,0 -0.77701,-0.34789 -0.77701,-0.77701 v -12.84654 c 0,-0.58845 -0.23517,-1.13557 -0.66222,-1.54086 -0.42673,-0.40487 -0.98752,-0.61073 -1.57701,-0.57996 -1.10709,0.058 -2.00811,1.08315 -2.00811,2.28503 v 19.3128 c 0,0.42912 -0.34778,0.77701 -0.777,0.77701 -0.42922,0 -0.77701,-0.34789 -0.77701,-0.77701 v -6.21606 c 0,-0.58846 -0.23528,-1.13558 -0.66222,-1.54086 -0.42673,-0.40488 -0.98659,-0.61063 -1.57702,-0.57986 -1.10739,0.058 -2.00851,1.08253 -2.00851,2.28368 v 8.64261 z"
           id="path870"
           style="stroke-width:0.103601" /><text
           xml:space="preserve"
           style="font-style:normal;font-variant:normal;font-weight:normal;font-stretch:normal;font-size:18.6667px;font-family:'Meta Offc Pro';-inkscape-font-specification:'Meta Offc Pro';fill:#000000;stroke-width:1.70079"
           x="302.15466"
           y="63.856709"
           id="text874"><tspan
             sodipodi:role="line"
             id="tspan872"
             x="302.15466"
             y="63.856709">R</tspan></text></g></g><g
       id="g1011"
       transform="translate(-117.08959,1.4903082)"><g
         id="g884"
         transform="matrix(0.54527563,0,0,0.54527563,525.17085,115.47857)"><path
           d="m 129.28579,52.830592 c -0.84176,-0.0438 -1.64892,0.19114 -2.32046,0.66885 v -10.09282 c 0,-2.04923 -1.52915,-3.73462 -3.4812,-3.83697 -0.85585,-0.0446 -1.67585,0.19901 -2.35413,0.69298 -0.11272,-0.82414 -0.50444,-1.59753 -1.11289,-2.17489 -0.73898,-0.70139 -1.70713,-1.05798 -2.72802,-1.00462 -1.74288,0.0914 -3.14875,1.44471 -3.42982,3.19236 -0.68169,-0.50267 -1.50812,-0.75121 -2.37184,-0.70594 -1.95205,0.10236 -3.48121,1.78774 -3.48121,3.83697 v 1.80473 c -0.67164,-0.4777 -1.47818,-0.71225 -2.32045,-0.66885 -1.95205,0.10236 -3.48121,1.78764 -3.48121,3.83698 v 13.34828 c 0,2.94703 0.50257,5.84859 1.49372,8.62406 l 2.56848,7.19147 c -0.45988,0.44311 -0.74686,1.06461 -0.74686,1.75221 v 3.31524 c 0,1.34246 1.09216,2.43462 2.43463,2.43462 h 18.23379 c 1.34247,0 2.43463,-1.09216 2.43463,-2.43462 v -3.31524 c 0,-0.72572 -0.31951,-1.37779 -0.82487,-1.82431 0.0201,-0.87015 0.26356,-1.72164 0.71215,-2.46912 l 3.31928,-5.5322 c 0.66584,-1.10988 0.93748,-2.31549 0.93748,-4.16104 v -8.64261 c -1e-4,-2.0484 -1.52915,-3.73327 -3.4812,-3.83552 z m -2.21696,29.78014 c 0,0.48558 -0.39503,0.88061 -0.88061,0.88061 h -18.2338 c -0.48557,0 -0.88061,-0.39503 -0.88061,-0.88061 v -3.31523 c 0,-0.48558 0.39504,-0.88061 0.88061,-0.88061 h 18.2338 c 0.48558,0 0.88061,0.39503 0.88061,0.88061 z m 4.14404,-17.3019 c 0,1.79924 -0.28625,2.64514 -0.71609,3.36144 l -3.31927,5.53219 c -0.48848,0.81421 -0.79286,1.72248 -0.89677,2.66069 -0.0308,-0.001 -0.0614,-0.002 -0.0925,-0.002 h -18.2338 c -0.0931,0 -0.18503,0.006 -0.27547,0.0161 l -2.5171,-7.04778 c -0.93116,-2.60712 -1.40327,-5.33287 -1.40327,-8.1014 v -13.34879 c 0,-1.20198 0.90091,-2.22701 2.00851,-2.28503 0.58929,-0.0307 1.15029,0.17488 1.57702,0.57986 0.42694,0.40529 0.66222,0.9524 0.66222,1.54086 v 8.70249 c 0,0.42912 0.34779,0.77701 0.77701,0.77701 0.42922,0 0.77701,-0.34789 0.77701,-0.77701 v -13.51103 c 0,-1.20198 0.90101,-2.22701 2.00851,-2.28503 0.58918,-0.0307 1.15038,0.17498 1.57701,0.57996 0.42705,0.40529 0.66222,0.9524 0.66222,1.54086 v 12.01773 c 0,0.42911 0.34779,0.77701 0.77701,0.77701 0.42922,0 0.77701,-0.3479 0.77701,-0.77701 v -14.33986 c 0,-1.20198 0.90102,-2.22701 2.00852,-2.28503 0.58866,-0.0312 1.15038,0.17498 1.57701,0.57996 0.42704,0.40529 0.66222,0.9524 0.66222,1.54086 v 15.33296 c 0,0.42912 0.34779,0.77701 0.77701,0.77701 0.42922,0 0.77701,-0.34789 0.77701,-0.77701 v -12.84653 c 0,-0.58846 0.23517,-1.13558 0.66222,-1.54086 0.42673,-0.40488 0.98752,-0.61073 1.57701,-0.57996 1.10708,0.058 2.0081,1.08315 2.0081,2.28502 v 19.31281 c 0,0.42911 0.34779,0.77701 0.77701,0.77701 0.42922,0 0.77701,-0.3479 0.77701,-0.77701 v -6.21607 c 0,-0.58846 0.23528,-1.13557 0.66222,-1.54086 0.42673,-0.40487 0.98659,-0.61063 1.57701,-0.57986 1.1074,0.058 2.00852,1.08253 2.00852,2.28368 v 8.64262 z"
           id="path878"
           style="stroke-width:0.103601" /><text
           xml:space="preserve"
           style="font-style:normal;font-variant:normal;font-weight:normal;font-stretch:normal;font-size:18.6667px;font-family:'Meta Offc Pro';-inkscape-font-specification:'Meta Offc Pro';fill:#ffffff;stroke-width:1.70079"
           x="112.31339"
           y="73.226875"
           id="text882"><tspan
             sodipodi:role="line"
             id="tspan880"
             x="112.31339"
             y="73.226875"
             style="font-size:18.6667px;fill:#000000">L</tspan></text></g><g
         id="g892"
         transform="matrix(0.54527563,0,0,0.54527563,446.06444,121.18419)"><path
           d="m 295.07871,42.366867 c 0.84176,-0.0438 1.64891,0.19114 2.32046,0.66885 v -10.09283 c 0,-2.04923 1.52915,-3.73461 3.4812,-3.83697 0.85585,-0.0446 1.67585,0.19902 2.35413,0.69299 0.11272,-0.82415 0.50443,-1.59753 1.11288,-2.1749 0.73899,-0.70138 1.70714,-1.05797 2.72803,-1.00462 1.74288,0.0914 3.14875,1.44472 3.42981,3.19237 0.6817,-0.50268 1.50812,-0.75121 2.37185,-0.70594 1.95205,0.10236 3.4812,1.78774 3.4812,3.83697 v 1.80473 c 0.67165,-0.4777 1.47818,-0.71226 2.32046,-0.66885 1.95205,0.10236 3.48121,1.78764 3.48121,3.83698 v 13.34827 c 0,2.94704 -0.50257,5.8486 -1.49372,8.62407 l -2.56848,7.19147 c 0.45988,0.44311 0.74686,1.06461 0.74686,1.75221 v 3.31523 c 0,1.34247 -1.09216,2.43463 -2.43463,2.43463 h -18.2338 c -1.34246,0 -2.43462,-1.09216 -2.43462,-2.43463 v -3.31523 c 0,-0.72573 0.3195,-1.37779 0.82487,-1.82431 -0.0201,-0.87015 -0.26356,-1.72165 -0.71215,-2.46913 l -3.31928,-5.53219 c -0.66584,-1.10988 -0.93749,-2.31549 -0.93749,-4.16104 v -8.64261 c 1.1e-4,-2.04841 1.52915,-3.73327 3.48121,-3.83552 z m 2.21696,29.78014 c 0,0.48558 0.39503,0.88061 0.88061,0.88061 h 18.2338 c 0.48557,0 0.8806,-0.39503 0.8806,-0.88061 v -3.31524 c 0,-0.48558 -0.39503,-0.88061 -0.8806,-0.88061 h -18.2338 c -0.48558,0 -0.88061,0.39503 -0.88061,0.88061 z m -4.14405,-17.30191 c 0,1.79924 0.28625,2.64515 0.71609,3.36144 l 3.31928,5.5322 c 0.48848,0.8142 0.79286,1.72248 0.89677,2.66069 0.0308,-0.001 0.0614,-0.002 0.0925,-0.002 h 18.2338 c 0.0931,0 0.18503,0.006 0.27547,0.0161 l 2.51709,-7.04777 c 0.93117,-2.60712 1.40328,-5.33287 1.40328,-8.1014 v -13.34828 c 0,-1.20198 -0.90092,-2.22701 -2.00851,-2.28503 -0.58929,-0.0307 -1.15029,0.17488 -1.57702,0.57986 -0.42694,0.40528 -0.66222,0.9524 -0.66222,1.54086 v 8.70249 c 0,0.42912 -0.34779,0.77701 -0.77701,0.77701 -0.42922,0 -0.77701,-0.34789 -0.77701,-0.77701 v -13.51104 c 0,-1.20198 -0.90101,-2.22701 -2.00851,-2.28502 -0.58918,-0.0307 -1.15039,0.17498 -1.57702,0.57996 -0.42704,0.40528 -0.66222,0.9524 -0.66222,1.54086 v 12.01773 c 0,0.42911 -0.34778,0.777 -0.777,0.777 -0.42922,0 -0.77701,-0.34789 -0.77701,-0.777 v -14.33987 c 0,-1.20198 -0.90102,-2.22701 -2.00852,-2.28502 -0.58866,-0.0312 -1.15038,0.17498 -1.57701,0.57996 -0.42705,0.40528 -0.66222,0.9524 -0.66222,1.54086 v 15.33296 c 0,0.42912 -0.34779,0.77701 -0.77701,0.77701 -0.42922,0 -0.77701,-0.34789 -0.77701,-0.77701 v -12.84654 c 0,-0.58845 -0.23517,-1.13557 -0.66222,-1.54086 -0.42673,-0.40487 -0.98752,-0.61073 -1.57701,-0.57996 -1.10709,0.058 -2.00811,1.08315 -2.00811,2.28503 v 19.3128 c 0,0.42912 -0.34778,0.77701 -0.777,0.77701 -0.42922,0 -0.77701,-0.34789 -0.77701,-0.77701 v -6.21606 c 0,-0.58846 -0.23528,-1.13558 -0.66222,-1.54086 -0.42673,-0.40488 -0.98659,-0.61063 -1.57702,-0.57986 -1.10739,0.058 -2.00851,1.08253 -2.00851,2.28368 v 8.64261 z"
           id="path886"
           style="stroke-width:0.103601" /><text
           xml:space="preserve"
           style="font-style:normal;font-variant:normal;font-weight:normal;font-stretch:normal;font-size:18.6667px;font-family:'Meta Offc Pro';-inkscape-font-specification:'Meta Offc Pro';fill:#000000;stroke-width:1.70079"
           x="302.15466"
           y="63.856709"
           id="text890"><tspan
             sodipodi:role="line"
             id="tspan888"
             x="302.15466"
             y="63.856709">R</tspan></text></g><g
         id="g900"
         transform="matrix(0.54527563,0,0,0.54527563,474.2294,121.18419)"><path
           d="m 295.07871,42.366867 c 0.84176,-0.0438 1.64891,0.19114 2.32046,0.66885 v -10.09283 c 0,-2.04923 1.52915,-3.73461 3.4812,-3.83697 0.85585,-0.0446 1.67585,0.19902 2.35413,0.69299 0.11272,-0.82415 0.50443,-1.59753 1.11288,-2.1749 0.73899,-0.70138 1.70714,-1.05797 2.72803,-1.00462 1.74288,0.0914 3.14875,1.44472 3.42981,3.19237 0.6817,-0.50268 1.50812,-0.75121 2.37185,-0.70594 1.95205,0.10236 3.4812,1.78774 3.4812,3.83697 v 1.80473 c 0.67165,-0.4777 1.47818,-0.71226 2.32046,-0.66885 1.95205,0.10236 3.48121,1.78764 3.48121,3.83698 v 13.34827 c 0,2.94704 -0.50257,5.8486 -1.49372,8.62407 l -2.56848,7.19147 c 0.45988,0.44311 0.74686,1.06461 0.74686,1.75221 v 3.31523 c 0,1.34247 -1.09216,2.43463 -2.43463,2.43463 h -18.2338 c -1.34246,0 -2.43462,-1.09216 -2.43462,-2.43463 v -3.31523 c 0,-0.72573 0.3195,-1.37779 0.82487,-1.82431 -0.0201,-0.87015 -0.26356,-1.72165 -0.71215,-2.46913 l -3.31928,-5.53219 c -0.66584,-1.10988 -0.93749,-2.31549 -0.93749,-4.16104 v -8.64261 c 1.1e-4,-2.04841 1.52915,-3.73327 3.48121,-3.83552 z m 2.21696,29.78014 c 0,0.48558 0.39503,0.88061 0.88061,0.88061 h 18.2338 c 0.48557,0 0.8806,-0.39503 0.8806,-0.88061 v -3.31524 c 0,-0.48558 -0.39503,-0.88061 -0.8806,-0.88061 h -18.2338 c -0.48558,0 -0.88061,0.39503 -0.88061,0.88061 z m -4.14405,-17.30191 c 0,1.79924 0.28625,2.64515 0.71609,3.36144 l 3.31928,5.5322 c 0.48848,0.8142 0.79286,1.72248 0.89677,2.66069 0.0308,-0.001 0.0614,-0.002 0.0925,-0.002 h 18.2338 c 0.0931,0 0.18503,0.006 0.27547,0.0161 l 2.51709,-7.04777 c 0.93117,-2.60712 1.40328,-5.33287 1.40328,-8.1014 v -13.34828 c 0,-1.20198 -0.90092,-2.22701 -2.00851,-2.28503 -0.58929,-0.0307 -1.15029,0.17488 -1.57702,0.57986 -0.42694,0.40528 -0.66222,0.9524 -0.66222,1.54086 v 8.70249 c 0,0.42912 -0.34779,0.77701 -0.77701,0.77701 -0.42922,0 -0.77701,-0.34789 -0.77701,-0.77701 v -13.51104 c 0,-1.20198 -0.90101,-2.22701 -2.00851,-2.28502 -0.58918,-0.0307 -1.15039,0.17498 -1.57702,0.57996 -0.42704,0.40528 -0.66222,0.9524 -0.66222,1.54086 v 12.01773 c 0,0.42911 -0.34778,0.777 -0.777,0.777 -0.42922,0 -0.77701,-0.34789 -0.77701,-0.777 v -14.33987 c 0,-1.20198 -0.90102,-2.22701 -2.00852,-2.28502 -0.58866,-0.0312 -1.15038,0.17498 -1.57701,0.57996 -0.42705,0.40528 -0.66222,0.9524 -0.66222,1.54086 v 15.33296 c 0,0.42912 -0.34779,0.77701 -0.77701,0.77701 -0.42922,0 -0.77701,-0.34789 -0.77701,-0.77701 v -12.84654 c 0,-0.58845 -0.23517,-1.13557 -0.66222,-1.54086 -0.42673,-0.40487 -0.98752,-0.61073 -1.57701,-0.57996 -1.10709,0.058 -2.00811,1.08315 -2.00811,2.28503 v 19.3128 c 0,0.42912 -0.34778,0.77701 -0.777,0.77701 -0.42922,0 -0.77701,-0.34789 -0.77701,-0.77701 v -6.21606 c 0,-0.58846 -0.23528,-1.13558 -0.66222,-1.54086 -0.42673,-0.40488 -0.98659,-0.61063 -1.57702,-0.57986 -1.10739,0.058 -2.00851,1.08253 -2.00851,2.28368 v 8.64261 z"
           id="path894"
           style="stroke-width:0.103601" /><text
           xml:space="preserve"
           style="font-style:normal;font-variant:normal;font-weight:normal;font-stretch:normal;font-size:18.6667px;font-family:'Meta Offc Pro';-inkscape-font-specification:'Meta Offc Pro';fill:#000000;stroke-width:1.70079"
           x="302.15466"
           y="63.856709"
           id="text898"><tspan
             sodipodi:role="line"
             id="tspan896"
             x="302.15466"
             y="63.856709">R</tspan></text></g></g></g></g><text
   xml:space="preserve"
   style="font-style:normal;font-variant:normal;font-weight:normal;font-stretch:normal;font-size:18.6667px;font-family:'Meta Offc Pro';-inkscape-font-specification:'Meta Offc Pro';fill:#000000;stroke-width:1.70079"
   x="18.150969"
   y="33.494995"
   id="text937"><tspan
     sodipodi:role="line"
     id="tspan935"
     x="18.150969"
     y="33.494995"
     style="font-weight:bold">a)</tspan></text><text
   xml:space="preserve"
   style="font-style:normal;font-variant:normal;font-weight:normal;font-stretch:normal;font-size:18.6667px;font-family:'Meta Offc Pro';-inkscape-font-specification:'Meta Offc Pro';fill:#000000;stroke-width:1.70079"
   x="329.55133"
   y="33.494995"
   id="text941"><tspan
     sodipodi:role="line"
     id="tspan939"
     x="329.55133"
     y="33.494995"
     style="font-weight:bold">b)</tspan></text></svg>
