<?xml version="1.0" encoding="UTF-8" standalone="no"?>
<!-- Created with Inkscape (http://www.inkscape.org/) -->

<svg
   width="150mm"
   height="40mm"
   viewBox="0 0 150 40"
   version="1.1"
   id="svg5"
   inkscape:version="1.2.1 (9c6d41e410, 2022-07-14)"
   sodipodi:docname="intro--gloves_game_myerson.svg"
   xmlns:inkscape="http://www.inkscape.org/namespaces/inkscape"
   xmlns:sodipodi="http://sodipodi.sourceforge.net/DTD/sodipodi-0.dtd"
   xmlns="http://www.w3.org/2000/svg"
   xmlns:svg="http://www.w3.org/2000/svg">
  <sodipodi:namedview
     id="namedview7"
     pagecolor="#ffffff"
     bordercolor="#000000"
     borderopacity="0.25"
     inkscape:showpageshadow="2"
     inkscape:pageopacity="0.0"
     inkscape:pagecheckerboard="0"
     inkscape:deskcolor="#d1d1d1"
     inkscape:document-units="mm"
     showgrid="false"
     inkscape:zoom="1.1893044"
     inkscape:cx="277.0527"
     inkscape:cy="33.212691"
     inkscape:window-width="1368"
     inkscape:window-height="850"
     inkscape:window-x="-6"
     inkscape:window-y="-6"
     inkscape:window-maximized="1"
     inkscape:current-layer="layer3" />
  <defs
     id="defs2" />
  <g
     inkscape:groupmode="layer"
     id="layer2"
     inkscape:label="rect"
     style="display:none">
    <rect
       style="fill:#009dd1;fill-opacity:0.339833;stroke:none;stroke-width:0.436502;stroke-dasharray:none;stroke-opacity:1"
       id="rect1248"
       width="50"
       height="50"
       x="0"
       y="0"
       inkscape:label="recta"
       sodipodi:insensitive="true" />
    <rect
       style="fill:#00d180;fill-opacity:0.339833;stroke:none;stroke-width:0.436502;stroke-dasharray:none;stroke-opacity:1"
       id="rect1668"
       width="50"
       height="50"
       x="50"
       y="0"
       inkscape:label="rectb"
       sodipodi:insensitive="true" />
    <rect
       style="fill:#009dd1;fill-opacity:0.339833;stroke:none;stroke-width:0.436502;stroke-dasharray:none;stroke-opacity:1"
       id="rect1670"
       width="50"
       height="50"
       x="100"
       y="0"
       inkscape:label="rectc"
       sodipodi:insensitive="true" />
  </g>
  <g
     inkscape:groupmode="layer"
     id="layer3"
     inkscape:label="content">
    <path
       style="fill:none;stroke:#000000;stroke-width:0.264583px;stroke-linecap:butt;stroke-linejoin:miter;stroke-opacity:1"
       d="M 96.124883,31.077441 75.935825,13.168689"
       id="path3639-9"
       sodipodi:nodetypes="cc" />
    <path
       style="fill:none;stroke:#000000;stroke-width:0.264583px;stroke-linecap:butt;stroke-linejoin:miter;stroke-opacity:1"
       d="M 55.524296,30.771545 75.657738,12.362238"
       id="path3639"
       sodipodi:nodetypes="cc" />
    <g
       id="g3553"
       transform="translate(1.7980422,-5.3796625)">
      <circle
         style="fill:#ffffff;fill-opacity:1;stroke:#000000;stroke-width:0.319"
         id="path3494-5"
         cx="73.847466"
         cy="18.464926"
         r="6.6740694" />
      <g
         id="g3419"
         transform="translate(3.1145657,-15.12789)">
        <path
           style="fill:#000000;stroke-width:0.0759416"
           id="path826"
           sodipodi:type="arc"
           sodipodi:cx="-70.732903"
           sodipodi:cy="-38.060364"
           sodipodi:rx="3.9419534"
           sodipodi:ry="3.9419534"
           sodipodi:start="0"
           sodipodi:end="3.1415927"
           sodipodi:arc-type="slice"
           d="m -66.790949,-38.060364 a 3.9419534,3.9419534 0 0 1 -1.970977,3.413832 3.9419534,3.9419534 0 0 1 -3.941953,0 3.9419534,3.9419534 0 0 1 -1.970977,-3.413832 h 3.941953 z"
           transform="scale(-1)" />
        <circle
           style="fill:#000000;stroke-width:0.0759416"
           id="circle828"
           cx="70.732903"
           cy="31.49044"
           r="2.3651721" />
        <text
           xml:space="preserve"
           style="font-style:normal;font-variant:normal;font-weight:normal;font-stretch:normal;font-size:3.84723px;font-family:'Meta Offc Pro';-inkscape-font-specification:'Meta Offc Pro';fill:#ffffff;stroke-width:0.245374"
           x="69.642212"
           y="37.368591"
           id="text832"><tspan
             sodipodi:role="line"
             id="tspan830"
             x="69.642212"
             y="37.368591"
             style="fill:#ffffff;stroke-width:0.245374">2</tspan></text>
      </g>
    </g>
    <g
       id="g3545"
       transform="translate(12.587784,-2.0426278)">
      <circle
         style="fill:#ffffff;fill-opacity:1;stroke:#000000;stroke-width:0.319"
         id="path3494"
         cx="42.802517"
         cy="32.702942"
         r="6.6740694" />
      <g
         id="g3413"
         transform="translate(-17.797518,-0.88987591)">
        <path
           style="fill:#000000;stroke-width:0.0759416"
           id="path816"
           sodipodi:type="arc"
           sodipodi:cx="-60.600037"
           sodipodi:cy="-38.060364"
           sodipodi:rx="3.9419534"
           sodipodi:ry="3.9419534"
           sodipodi:start="0"
           sodipodi:end="3.1415927"
           sodipodi:arc-type="slice"
           d="m -56.658083,-38.060364 a 3.9419534,3.9419534 0 0 1 -1.970977,3.413832 3.9419534,3.9419534 0 0 1 -3.941953,0 3.9419534,3.9419534 0 0 1 -1.970977,-3.413832 h 3.941953 z"
           transform="scale(-1)" />
        <circle
           style="fill:#000000;stroke-width:0.0759416"
           id="circle818"
           cx="60.600037"
           cy="31.49044"
           r="2.3651721" />
        <text
           xml:space="preserve"
           style="font-style:normal;font-variant:normal;font-weight:normal;font-stretch:normal;font-size:3.84723px;font-family:'Meta Offc Pro';-inkscape-font-specification:'Meta Offc Pro';fill:#ffffff;stroke-width:0.172069"
           x="59.578598"
           y="37.345505"
           id="text822"><tspan
             sodipodi:role="line"
             id="tspan820"
             x="59.578598"
             y="37.345505"
             style="font-size:3.84723px;fill:#ffffff;stroke-width:0.172069">1</tspan></text>
      </g>
    </g>
    <g
       id="g3537"
       transform="translate(1.4643357,-0.0404057)">
      <circle
         style="fill:#ffffff;fill-opacity:1;stroke:#000000;stroke-width:0.319"
         id="path3494-52"
         cx="94.436378"
         cy="30.70072"
         r="6.6740694" />
      <g
         id="g3425"
         transform="translate(13.570608,-2.8920965)">
        <path
           style="fill:#000000;stroke-width:0.0759416"
           id="path836"
           sodipodi:type="arc"
           sodipodi:cx="-80.865768"
           sodipodi:cy="-38.060364"
           sodipodi:rx="3.9419534"
           sodipodi:ry="3.9419534"
           sodipodi:start="0"
           sodipodi:end="3.1415927"
           sodipodi:arc-type="slice"
           d="m -76.923815,-38.060364 a 3.9419534,3.9419534 0 0 1 -1.970977,3.413832 3.9419534,3.9419534 0 0 1 -3.941953,0 3.9419534,3.9419534 0 0 1 -1.970977,-3.413832 h 3.941954 z"
           transform="scale(-1)" />
        <circle
           style="fill:#000000;stroke-width:0.0759416"
           id="circle838"
           cx="80.865768"
           cy="31.49044"
           r="2.3651721" />
        <text
           xml:space="preserve"
           style="font-style:normal;font-variant:normal;font-weight:normal;font-stretch:normal;font-size:3.84723px;font-family:'Meta Offc Pro';-inkscape-font-specification:'Meta Offc Pro';fill:#ffffff;stroke-width:0.245374"
           x="79.807777"
           y="37.305111"
           id="text842"><tspan
             sodipodi:role="line"
             id="tspan840"
             x="79.807777"
             y="37.305111"
             style="stroke-width:0.245374">3</tspan></text>
      </g>
    </g>
    <g
       id="g3430"
       transform="translate(-41.721652,-10.6887)">
      <path
         d="m 90.50653,32.405325 c -0.12144,-0.0063 -0.23789,0.02758 -0.33477,0.0965 v -1.4561 c 0,-0.295644 -0.22061,-0.538797 -0.50224,-0.553563 -0.12347,-0.0064 -0.24177,0.02871 -0.33963,0.09998 -0.0163,-0.118899 -0.0728,-0.230477 -0.16056,-0.313773 -0.10661,-0.10119 -0.24628,-0.152636 -0.39357,-0.144937 -0.25145,0.01319 -0.45427,0.208429 -0.49482,0.460564 -0.0983,-0.07252 -0.21758,-0.108378 -0.34219,-0.101847 -0.28162,0.01477 -0.50224,0.257919 -0.50224,0.553563 v 0.26037 c -0.0969,-0.06892 -0.21326,-0.102757 -0.33477,-0.0965 -0.28162,0.01477 -0.50224,0.257904 -0.50224,0.553564 v 1.925768 c 0,0.42517 0.0725,0.843781 0.2155,1.2442 l 0.37056,1.03752 c -0.0663,0.06393 -0.10775,0.153592 -0.10775,0.252793 v 0.478292 c 0,0.193678 0.15757,0.351245 0.35125,0.351245 h 2.6306 c 0.19368,0 0.35125,-0.157567 0.35125,-0.351245 v -0.478292 c 0,-0.104701 -0.0461,-0.198775 -0.11901,-0.263195 0.003,-0.125537 0.038,-0.248383 0.10274,-0.356222 l 0.47888,-0.798135 c 0.0961,-0.160124 0.13525,-0.334058 0.13525,-0.600317 v -1.246877 c -1e-5,-0.295524 -0.22061,-0.538602 -0.50224,-0.553354 z m -0.31984,4.296407 c 0,0.07005 -0.057,0.127046 -0.12704,0.127046 h -2.63061 c -0.07,0 -0.12705,-0.05699 -0.12705,-0.127046 V 36.22344 c 0,-0.07006 0.057,-0.127046 0.12705,-0.127046 h 2.63061 c 0.07,0 0.12704,0.05699 0.12704,0.127046 z m 0.59787,-2.49616 c 0,0.259578 -0.0413,0.381616 -0.10331,0.484958 l -0.47888,0.798133 c -0.0705,0.117467 -0.11439,0.248504 -0.12938,0.38386 -0.004,-1.44e-4 -0.009,-2.88e-4 -0.0133,-2.88e-4 h -2.63061 c -0.0134,0 -0.0267,8.65e-4 -0.0397,0.0023 L 87.02624,34.857746 C 86.8919,34.481615 86.82379,34.088369 86.82379,33.68895 v -1.925841 c 0,-0.173411 0.12997,-0.321292 0.28976,-0.329663 0.085,-0.0044 0.16596,0.02523 0.22752,0.08366 0.0616,0.05847 0.0955,0.137403 0.0955,0.222301 v 1.255516 c 0,0.06191 0.0502,0.1121 0.1121,0.1121 0.0619,0 0.1121,-0.05019 0.1121,-0.1121 v -1.949248 c 0,-0.173411 0.12999,-0.321293 0.28977,-0.329663 0.085,-0.0044 0.16597,0.02524 0.22752,0.08367 0.0616,0.05847 0.0955,0.137403 0.0955,0.222301 v 1.733808 c 0,0.06191 0.0502,0.1121 0.1121,0.1121 0.0619,0 0.1121,-0.05019 0.1121,-0.1121 v -2.068824 c 0,-0.17341 0.12999,-0.321292 0.28977,-0.329663 0.0849,-0.0045 0.16596,0.02525 0.22751,0.08367 0.0616,0.05847 0.0955,0.137403 0.0955,0.222301 v 2.212099 c 0,0.06191 0.0502,0.1121 0.1121,0.1121 0.0619,0 0.1121,-0.05019 0.1121,-0.1121 v -1.85338 c 0,-0.0849 0.0339,-0.163831 0.0955,-0.222301 0.0616,-0.05841 0.14247,-0.08811 0.22752,-0.08367 0.15972,0.0084 0.28971,0.156267 0.28971,0.329661 v 2.786276 c 0,0.06191 0.0502,0.1121 0.1121,0.1121 0.0619,0 0.1121,-0.05019 0.1121,-0.1121 v -0.896798 c 0,-0.0849 0.0339,-0.163829 0.0955,-0.222301 0.0616,-0.05841 0.14233,-0.0881 0.22751,-0.08366 0.15977,0.0084 0.28978,0.156178 0.28978,0.329469 v 1.246878 z"
         id="path878"
         style="stroke-width:0.0149466" />
      <text
         xml:space="preserve"
         style="font-style:normal;font-variant:normal;font-weight:normal;font-stretch:normal;font-size:2.69306px;font-family:'Meta Offc Pro';-inkscape-font-specification:'Meta Offc Pro';fill:#ffffff;stroke-width:0.245374"
         x="88.057907"
         y="35.347916"
         id="text882"><tspan
           sodipodi:role="line"
           id="tspan880"
           x="88.057907"
           y="35.347916"
           style="font-size:2.69306px;fill:#000000;stroke-width:0.245374">L</tspan></text>
    </g>
    <g
       id="g3435"
       transform="translate(-11.327631,-27.626561)">
      <path
         d="m 93.49538,32.405327 c 0.12144,-0.0063 0.23789,0.02758 0.33478,0.0965 v -1.456101 c 0,-0.295644 0.22061,-0.538795 0.50223,-0.553563 0.12348,-0.0064 0.24178,0.02871 0.33964,0.09998 0.0163,-0.118901 0.0728,-0.230477 0.16055,-0.313775 0.10662,-0.101189 0.24629,-0.152634 0.39358,-0.144937 0.25144,0.01319 0.45427,0.208431 0.49482,0.460566 0.0984,-0.07252 0.21758,-0.108378 0.34219,-0.101847 0.28162,0.01477 0.50223,0.257919 0.50223,0.553563 v 0.26037 c 0.0969,-0.06892 0.21326,-0.102759 0.33478,-0.0965 0.28162,0.01477 0.50223,0.257905 0.50223,0.553565 v 1.925766 c 0,0.425172 -0.0725,0.843782 -0.2155,1.244202 l -0.37055,1.037519 c 0.0663,0.06393 0.10775,0.153592 0.10775,0.252793 v 0.478291 c 0,0.193679 -0.15757,0.351246 -0.35125,0.351246 h -2.6306 c -0.19368,0 -0.35125,-0.157567 -0.35125,-0.351246 v -0.478293 c 0,-0.104702 0.0461,-0.198775 0.11901,-0.263195 -0.003,-0.125537 -0.038,-0.248384 -0.10275,-0.356223 L 93.1284,34.805874 c -0.0961,-0.160123 -0.13525,-0.334058 -0.13525,-0.600317 v -1.246876 c 1e-5,-0.295526 0.22061,-0.538602 0.50223,-0.553354 z m 0.31985,4.296406 c 0,0.07005 0.057,0.127046 0.12704,0.127046 h 2.63061 c 0.0701,0 0.12704,-0.05699 0.12704,-0.127046 v -0.478292 c 0,-0.07006 -0.057,-0.127047 -0.12704,-0.127047 h -2.63061 c -0.0701,0 -0.12704,0.05699 -0.12704,0.127047 z m -0.59787,-2.496161 c 0,0.259578 0.0413,0.381618 0.10331,0.484958 l 0.47888,0.798135 c 0.0705,0.117465 0.11438,0.248503 0.12937,0.38386 0.004,-1.44e-4 0.009,-2.89e-4 0.0134,-2.89e-4 h 2.6306 c 0.0134,0 0.0267,8.66e-4 0.0397,0.0023 l 0.36314,-1.016788 c 0.13434,-0.376131 0.20245,-0.769377 0.20245,-1.168796 v -1.925767 c 0,-0.173411 -0.12997,-0.321293 -0.28977,-0.329664 -0.085,-0.0044 -0.16595,0.02523 -0.22752,0.08366 -0.0616,0.05847 -0.0955,0.137404 -0.0955,0.222302 v 1.255515 c 0,0.06191 -0.0502,0.1121 -0.1121,0.1121 -0.0619,0 -0.1121,-0.05019 -0.1121,-0.1121 v -1.949249 c 0,-0.173411 -0.12999,-0.321293 -0.28977,-0.329662 -0.085,-0.0044 -0.16597,0.02524 -0.22752,0.08367 -0.0616,0.05847 -0.0955,0.137404 -0.0955,0.222302 v 1.733808 c 0,0.06191 -0.0502,0.112098 -0.1121,0.112098 -0.0619,0 -0.1121,-0.05019 -0.1121,-0.112098 v -2.068825 c 0,-0.173411 -0.12999,-0.321293 -0.28977,-0.329662 -0.0849,-0.0045 -0.16597,0.02524 -0.22752,0.08367 -0.0616,0.05847 -0.0955,0.137404 -0.0955,0.222301 v 2.212099 c 0,0.06191 -0.0502,0.1121 -0.1121,0.1121 -0.0619,0 -0.1121,-0.05019 -0.1121,-0.1121 v -1.853381 c 0,-0.0849 -0.0339,-0.163829 -0.0955,-0.222301 -0.0616,-0.05841 -0.14248,-0.08811 -0.22752,-0.08367 -0.15972,0.0084 -0.28971,0.156267 -0.28971,0.329663 v 2.786274 c 0,0.06191 -0.0502,0.1121 -0.1121,0.1121 -0.0619,0 -0.1121,-0.05019 -0.1121,-0.1121 v -0.896796 c 0,-0.0849 -0.0339,-0.163831 -0.0955,-0.222301 -0.0616,-0.05841 -0.14234,-0.0881 -0.22752,-0.08366 -0.15976,0.0084 -0.28977,0.156177 -0.28977,0.329468 v 1.246877 z"
         id="path886"
         style="stroke-width:0.0149466" />
      <text
         xml:space="preserve"
         style="font-style:normal;font-variant:normal;font-weight:normal;font-stretch:normal;font-size:2.69306px;font-family:'Meta Offc Pro';-inkscape-font-specification:'Meta Offc Pro';fill:#000000;stroke-width:0.245374"
         x="94.516228"
         y="35.505684"
         id="text890"><tspan
           sodipodi:role="line"
           id="tspan888"
           x="94.516228"
           y="35.505684"
           style="stroke-width:0.245374">R</tspan></text>
    </g>
    <g
       id="g3440"
       transform="translate(1.3260955,-10.6887)">
      <path
         d="m 100.94736,32.405327 c 0.12144,-0.0063 0.23789,0.02758 0.33478,0.0965 v -1.456101 c 0,-0.295644 0.22061,-0.538795 0.50223,-0.553563 0.12348,-0.0064 0.24178,0.02871 0.33963,0.09998 0.0163,-0.118901 0.0728,-0.230477 0.16056,-0.313775 0.10661,-0.101189 0.24629,-0.152634 0.39358,-0.144937 0.25144,0.01319 0.45427,0.208431 0.49482,0.460566 0.0984,-0.07252 0.21757,-0.108378 0.34219,-0.101847 0.28162,0.01477 0.50223,0.257919 0.50223,0.553563 v 0.26037 c 0.0969,-0.06892 0.21326,-0.102759 0.33478,-0.0965 0.28162,0.01477 0.50223,0.257905 0.50223,0.553565 v 1.925766 c 0,0.425172 -0.0725,0.843782 -0.2155,1.244202 l -0.37055,1.037519 c 0.0663,0.06393 0.10775,0.153592 0.10775,0.252793 v 0.478291 c 0,0.193679 -0.15757,0.351246 -0.35125,0.351246 h -2.63061 c -0.19367,0 -0.35124,-0.157567 -0.35124,-0.351246 v -0.478293 c 0,-0.104702 0.0461,-0.198775 0.119,-0.263195 -0.003,-0.125537 -0.038,-0.248384 -0.10274,-0.356223 l -0.47887,-0.798134 c -0.0961,-0.160123 -0.13526,-0.334058 -0.13526,-0.600317 v -1.246876 c 2e-5,-0.295526 0.22062,-0.538602 0.50224,-0.553354 z m 0.31984,4.296406 c 0,0.07005 0.057,0.127046 0.12705,0.127046 h 2.63061 c 0.0701,0 0.12704,-0.05699 0.12704,-0.127046 v -0.478292 c 0,-0.07006 -0.057,-0.127047 -0.12704,-0.127047 h -2.63061 c -0.07,0 -0.12705,0.05699 -0.12705,0.127047 z m -0.59786,-2.496161 c 0,0.259578 0.0413,0.381618 0.10331,0.484958 l 0.47887,0.798135 c 0.0705,0.117465 0.11439,0.248503 0.12938,0.38386 0.004,-1.44e-4 0.009,-2.89e-4 0.0134,-2.89e-4 h 2.6306 c 0.0134,0 0.0267,8.66e-4 0.0397,0.0023 l 0.36314,-1.016788 c 0.13434,-0.376131 0.20245,-0.769377 0.20245,-1.168796 v -1.925767 c 0,-0.173411 -0.12998,-0.321293 -0.28977,-0.329664 -0.085,-0.0044 -0.16595,0.02523 -0.22752,0.08366 -0.0616,0.05847 -0.0955,0.137404 -0.0955,0.222302 v 1.255515 c 0,0.06191 -0.0502,0.1121 -0.1121,0.1121 -0.0619,0 -0.1121,-0.05019 -0.1121,-0.1121 v -1.949249 c 0,-0.173411 -0.12999,-0.321293 -0.28977,-0.329662 -0.085,-0.0044 -0.16596,0.02524 -0.22751,0.08367 -0.0616,0.05847 -0.0955,0.137404 -0.0955,0.222302 v 1.733808 c 0,0.06191 -0.0502,0.112098 -0.1121,0.112098 -0.0619,0 -0.1121,-0.05019 -0.1121,-0.112098 v -2.068825 c 0,-0.173411 -0.12999,-0.321293 -0.28977,-0.329662 -0.0849,-0.0045 -0.16597,0.02524 -0.22752,0.08367 -0.0616,0.05847 -0.0955,0.137404 -0.0955,0.222301 v 2.212099 c 0,0.06191 -0.0502,0.1121 -0.1121,0.1121 -0.0619,0 -0.1121,-0.05019 -0.1121,-0.1121 v -1.853381 c 0,-0.0849 -0.0339,-0.163829 -0.0955,-0.222301 -0.0616,-0.05841 -0.14247,-0.08811 -0.22751,-0.08367 -0.15972,0.0084 -0.28971,0.156267 -0.28971,0.329663 v 2.786274 c 0,0.06191 -0.0502,0.1121 -0.1121,0.1121 -0.0619,0 -0.1121,-0.05019 -0.1121,-0.1121 v -0.896796 c 0,-0.0849 -0.034,-0.163831 -0.0955,-0.222301 -0.0616,-0.05841 -0.14234,-0.0881 -0.22752,-0.08366 -0.15976,0.0084 -0.28977,0.156177 -0.28977,0.329468 v 1.246877 z"
         id="path894"
         style="stroke-width:0.0149466" />
      <text
         xml:space="preserve"
         style="font-style:normal;font-variant:normal;font-weight:normal;font-stretch:normal;font-size:2.69306px;font-family:'Meta Offc Pro';-inkscape-font-specification:'Meta Offc Pro';fill:#000000;stroke-width:0.245374"
         x="101.96822"
         y="35.505684"
         id="text898"><tspan
           sodipodi:role="line"
           id="tspan896"
           x="101.96822"
           y="35.505684"
           style="stroke-width:0.245374">R</tspan></text>
    </g>
  </g>
  <g
     inkscape:label="abc"
     inkscape:groupmode="layer"
     id="layer1"
     style="display:none">
    <text
       xml:space="preserve"
       style="font-weight:600;font-size:4.23333px;font-family:'Segoe UI';-inkscape-font-specification:'Segoe UI Semi-Bold';fill:#000000;stroke-width:0.256"
       x="4.8491049"
       y="8.0819798"
       id="text502"
       inkscape:label="text a"
       sodipodi:insensitive="true"><tspan
         sodipodi:role="line"
         id="tspan500"
         style="font-style:normal;font-variant:normal;font-weight:bold;font-stretch:normal;font-size:4.23333px;font-family:'Meta Offc Pro';-inkscape-font-specification:'Meta Offc Pro Bold';stroke-width:0.256"
         x="4.8491049"
         y="8.0819798">a)</tspan></text>
    <text
       xml:space="preserve"
       style="font-weight:600;font-size:4.23333px;font-family:'Segoe UI';-inkscape-font-specification:'Segoe UI Semi-Bold';fill:#000000;stroke-width:0.256"
       x="104.8243"
       y="8.0819798"
       id="text502-8"
       inkscape:label="text c"
       sodipodi:insensitive="true"><tspan
         sodipodi:role="line"
         id="tspan500-8"
         style="font-style:normal;font-variant:normal;font-weight:bold;font-stretch:normal;font-size:4.23333px;font-family:'Meta Offc Pro';-inkscape-font-specification:'Meta Offc Pro Bold';stroke-width:0.256"
         x="104.8243"
         y="8.0819798">c)</tspan></text>
    <text
       xml:space="preserve"
       style="font-weight:600;font-size:4.23333px;font-family:'Segoe UI';-inkscape-font-specification:'Segoe UI Semi-Bold';fill:#000000;stroke-width:0.256"
       x="54.720947"
       y="8.0819798"
       id="text502-0"
       inkscape:label="text b"
       sodipodi:insensitive="true"><tspan
         sodipodi:role="line"
         id="tspan500-5"
         style="font-style:normal;font-variant:normal;font-weight:bold;font-stretch:normal;font-size:4.23333px;font-family:'Meta Offc Pro';-inkscape-font-specification:'Meta Offc Pro Bold';stroke-width:0.256"
         x="54.720947"
         y="8.0819798">b)</tspan></text>
  </g>
</svg>
